<svg width="119.703" height="131.58" viewBox="0 0 119.703 131.58" xmlns="http://www.w3.org/2000/svg" xmlns:xlink="http://www.w3.org/1999/xlink" overflow="hidden"><path d="M66.675 8C34.269 8 8 36.938 8 72.635 8 108.332 34.269 137.27 66.675 137.27 99.081 137.27 125.35 108.332 125.35 72.635 125.35 36.938 99.08 8 66.675 8ZM66.675 124.76C40.524 124.76 19.357 101.447 19.357 72.635 19.357 43.823 40.52 20.51 66.675 20.51 92.83 20.51 113.993 43.823 113.993 72.635 113.993 101.447 92.83 124.76 66.675 124.76ZM92.8 103.443C80.254 78.349 80.916 79.6 80.2 78.4 85.941 74.783 89.541 67.568 89.541 59.328 89.541 45.644 82.385 37.109 65.527 37.109L46.916 37.109C45.2716 37.1958 44.0045 38.5919 44.077 40.237L44.077 104.951C44.0045 106.596 45.2716 107.992 46.916 108.079L56.041 108.079C57.6854 107.992 58.9525 106.596 58.88 104.951L58.88 83.151 66.441 83.151 77.683 106.426C78.1279 107.416 79.1035 108.062 80.189 108.084L90.318 108.084C92.48 108.084 93.847 105.53 92.805 103.447ZM66.891 68.443 58.881 68.443 58.881 51.724 65.358 51.724C73.028 51.724 74.568 54.886 74.568 59.988 74.568 65.439 71.843 68.441 66.9 68.441Z" id="registered-regular" fill="#6764AF" transform="translate(-8 -8)"/><path d="M92.8 103.443C80.254 78.349 80.916 79.6 80.2 78.4 85.941 74.783 89.541 67.568 89.541 59.328 89.541 45.644 82.385 37.109 65.527 37.109L46.916 37.109C45.2716 37.1958 44.0045 38.5919 44.077 40.237L44.077 104.951C44.0045 106.596 45.2716 107.992 46.916 108.079L56.041 108.079C57.6854 107.992 58.9525 106.596 58.88 104.951L58.88 83.151 66.441 83.151 77.683 106.426C78.1279 107.416 79.1035 108.062 80.189 108.084L90.318 108.084C92.48 108.084 93.847 105.53 92.805 103.447ZM66.891 68.443 58.881 68.443 58.881 51.724 65.358 51.724C73.028 51.724 74.568 54.886 74.568 59.988 74.568 65.439 71.843 68.441 66.9 68.441Z" id="registered-regular-2" stroke="#6764AF" stroke-width="5" fill="#FEFEFE" transform="translate(24 21)"/></svg>